HIERARCHY
ROOT pelvis
{
  OFFSET 0 100 0
  CHANNELS 6 Xposition Yposition Zposition Zrotation Xrotation Yrotation
  JOINT pelvis_right_femur
  {
    OFFSET -10.78128 -3.44521 -0.5502486
    CHANNELS 3 Zrotation Xrotation Yrotation
    JOINT right_femur_tibia
    {
      OFFSET -0.8047443 -44.0398 -0.1307829
      CHANNELS 3 Zrotation Xrotation Yrotation
      JOINT right_tibia_foot
      {
        OFFSET 3.006224 -47.83518 -5
        CHANNELS 3 Zrotation Xrotation Yrotation
        End Site
        {
          OFFSET 0 -5 15
        }
      }
    }
  }
  JOINT pelvis_left_femur
  {
    OFFSET 10.78128 -3.44521 -0.5502486
    CHANNELS 3 Zrotation Xrotation Yrotation
    JOINT left_femur_tibia
    {
      OFFSET 0.8047443 -44.0398 -0.1307829
      CHANNELS 3 Zrotation Xrotation Yrotation
      JOINT left_tibia_foot
      {
        OFFSET -4.370144 -48.10324 -4.275266
        CHANNELS 3 Zrotation Xrotation Yrotation
        End Site
        {
          OFFSET 0 -5 15
        }
      }
    }
  }
  JOINT pelvis_spine1
  {
    OFFSET 0 6.468898 -3.129235
    CHANNELS 3 Zrotation Xrotation Yrotation
    JOINT spine1
    {
      OFFSET 0 23.15396 4.99043
      CHANNELS 3 Zrotation Xrotation Yrotation
      JOINT spine2
      {
        OFFSET 0 20.79997 -5.064912
        CHANNELS 3 Zrotation Xrotation Yrotation
        JOINT neck
        {
          OFFSET 0 14.38658 9.616178
          CHANNELS 3 Zrotation Xrotation Yrotation
          End Site
          {
            OFFSET 0 20 0
          }
        }
      }
      JOINT right_manubrium
      {
        OFFSET -5.722621 16.35077 3.967754
        CHANNELS 3 Zrotation Xrotation Yrotation
        JOINT right_clavicle
        {
          OFFSET -13.16364 1.694482 -4.693211
          CHANNELS 3 Zrotation Xrotation Yrotation
          JOINT right_humerus
          {
            OFFSET -28.5034 -0.3100689 -2.792744
            CHANNELS 3 Zrotation Xrotation Yrotation
            JOINT right_radius
            {
              OFFSET -25.15693 0.02248979 -1.271978
              CHANNELS 3 Zrotation Xrotation Yrotation
              End Site
              {
                OFFSET -15 0 0
              }
            }
          }
        }
      }
      JOINT left_manubrium
      {
        OFFSET 5.722621 16.35077 3.967754
        CHANNELS 3 Zrotation Xrotation Yrotation
        JOINT left_clavicle
        {
          OFFSET 13.16364 1.694482 -4.693211
          CHANNELS 3 Zrotation Xrotation Yrotation
          JOINT left_humerus
          {
            OFFSET 29.39168 -1.063119 -2.237045
            CHANNELS 3 Zrotation Xrotation Yrotation
            JOINT left_radius
            {
              OFFSET 24.59957 -0.9528479 0.9047498
              CHANNELS 3 Zrotation Xrotation Yrotation
              End Site
              {
                OFFSET 15 -0 -0
              }
            }
          }
        }
      }
    }
  }
}
MOTION
Frames: 23
Frame Time: 0.0416666666667
867.904 94.00745 2999.268 4.320824 -4.819486 34.52637 2.336912 -24.51816 2.796418 -0 16.85664 -0 0.1384025 -5.113869 -10.51351 -4.082324 19.70879 -8.809823 -0 27.20285 -0 -8.259554 -17.69321 11.73183 -2.333863 0.4675457 1.572923 1.473586 7.863225 -7.554613 2.876707 22.70709 4.937272 1.801308 -15.22358 7.659877 1.765991 -11.0334 9.190537 90.95227 25.67427 -22.40248 -0 0 6.372958 -16.72153 13.17534 6.770303 6.798292 -20.89732 -3.952689 -80.11268 24.32034 0.5978276 0 0 -25.78893 1.79938 9.461196 10.59593
871.2891 94.00634 3005.545 4.215906 -5.596467 34.53168 3.620226 -22.04348 3.432201 -0 18.56346 -0 -0.9390195 -5.628346 -10.34854 -3.483903 19.0151 -8.834844 -0 34.61692 -0 -8.767193 -15.40101 12.42383 -1.690093 0.4203918 1.516421 1.417971 7.960673 -7.197563 3.141364 23.17973 4.508338 1.828337 -15.06876 7.476182 2.048648 -10.72316 9.305877 90.89019 25.85681 -21.93882 -0 0 5.7946 -15.84168 12.89413 6.063932 6.181735 -20.4737 -4.006205 -80.72203 24.95615 1.234199 0 0 -24.20739 1.904732 10.37694 10.59096
874.585 94.63426 3011.778 4.323634 -6.579841 34.21431 4.714084 -17.83194 3.907362 -0 20.55058 -0 -2.061739 -6.84636 -10.02719 -2.992497 16.67751 -8.768435 -0 42.87133 -0 -8.893725 -12.64297 13.55021 -1.153632 0.4764886 1.671845 1.347965 8.157483 -6.674208 3.415317 23.8595 4.035838 1.745884 -14.79225 7.349278 2.326544 -10.66332 9.557134 90.52601 26.15212 -20.76525 -0 0 5.582232 -15.37788 12.80912 5.822914 5.332129 -19.75516 -4.055446 -81.87002 25.49066 2.580963 0 0 -21.63126 1.893814 11.49489 10.5907
877.7149 95.75483 3017.749 4.682221 -7.567319 33.57028 5.386793 -12.15951 4.07211 -0 21.81882 -0 -3.068396 -8.617625 -9.486895 -2.710088 12.37969 -8.624183 -0 50.70383 -0 -8.652108 -10.11244 15.02577 -0.8793451 0.7066709 2.16321 1.230058 8.389459 -5.963903 3.650837 24.63988 3.627593 1.635943 -14.49343 7.276174 2.576621 -10.97474 9.935686 89.7042 26.58152 -18.86415 -0 0 5.891552 -15.49033 12.95566 6.135253 4.489992 -18.85108 -3.998303 -83.61181 25.86403 4.714234 0 0 -18.4093 1.646902 12.70687 10.69426
880.6531 97.06732 3023.302 5.215114 -8.315799 32.66995 5.517724 -5.843954 4.030791 -0 21.61099 -0 -3.584359 -10.48226 -8.702692 -2.61178 6.205723 -8.381376 -0 56.43201 -0 -8.279161 -8.51881 16.62945 -0.9020262 1.113376 3.072709 1.004921 8.651565 -5.132207 3.771635 25.22898 3.454081 1.629365 -14.3069 7.242861 2.813874 -11.78272 10.38279 88.27954 27.05143 -16.41831 -0 0 6.989373 -16.37198 13.36856 7.003267 3.97842 -17.9765 -3.748345 -85.80984 25.8774 7.577885 0 0 -15.24343 1.104013 13.60646 11.02823
883.4833 98.19501 3028.449 5.753927 -8.644134 31.64102 5.128054 0.08901041 4.181319 -0 19.83428 -0 -3.057222 -11.85331 -7.704419 -2.485808 -1.224734 -7.88184 -0 58.49209 -0 -8.125198 -8.044082 18.09059 -1.088178 1.562364 4.382493 0.6371181 9.068049 -4.34391 3.696545 25.20426 3.634646 1.829311 -14.30425 7.179311 3.052939 -13.19247 10.81717 86.23678 27.22244 -13.79847 -0 0 9.291544 -18.09971 13.92575 8.318564 4.02331 -17.3598 -3.339612 -88.01878 25.14533 10.86854 0 0 -13.03445 0.4023227 13.39459 11.56896
886.3694 98.82892 3033.378 6.027577 -8.475452 30.60787 4.474819 4.980054 4.851385 -0 17.20827 -0 -1.309531 -12.46487 -6.526008 -1.971443 -9.004674 -6.8078 -0 55.73723 -0 -8.300267 -8.145459 19.1625 -1.222941 1.835466 5.877909 0.2178025 9.739072 -3.795001 3.389508 24.35873 4.062675 2.160233 -14.55346 6.961755 3.126625 -15.24973 11.19178 83.91263 26.50995 -11.37363 -0 0 13.09716 -20.23913 14.06934 9.86634 4.497256 -17.085 -2.939728 -89.70519 23.62733 14.19524 0 0 -12.38642 -0.1929242 11.46177 12.19435
889.4277 98.83352 3038.304 5.653367 -7.756716 29.63499 4.085447 8.861295 5.639112 -0 14.90321 -0 0.6530747 -12.80701 -5.131882 -0.8212408 -16.20451 -5.027523 -0 47.56103 -0 -8.299664 -8.125185 19.63896 -1.206679 1.79545 7.071947 0.008870463 10.36169 -3.597767 2.890593 23.14459 4.387806 2.294632 -15.3095 6.541868 2.604587 -17.77212 11.46267 82.06224 24.62005 -9.252859 -0 0 17.81009 -21.64449 12.95692 11.39239 4.853326 -16.9688 -2.669309 -90.79631 22.3707 17.40097 0 0 -12.93344 -0.6110051 8.538334 13.00686
892.6622 98.28839 3043.317 4.520697 -6.540029 28.74753 4.175507 12.18341 5.561199 -0 13.93493 -0 1.111447 -13.73451 -3.51966 0.6054793 -21.79439 -3.281949 -0 35.59063 -0 -7.460286 -7.83351 19.54663 -1.147698 1.499532 7.515509 0.1129681 10.32404 -3.64953 2.324027 22.41413 4.433717 2.07923 -16.61472 6.078627 1.496221 -20.06436 11.48109 81.0735 22.77807 -7.220212 -0 0 21.61766 -21.64777 10.73295 12.76959 4.700226 -16.69712 -2.420498 -91.71445 22.56153 20.31958 0 0 -13.18032 -0.9311639 6.682861 14.0281
896.0803 97.44975 3048.439 3.31517 -5.224077 27.97335 4.02474 15.08593 4.535204 -0 14.61622 -0 -0.1337272 -14.81366 -2.023317 1.334208 -24.95457 -2.805514 -0 25.00962 -0 -6.104854 -7.539244 19.35726 -1.269578 1.091042 7.442211 0.1577488 9.648582 -3.663536 1.879146 22.3477 4.559373 2.041809 -17.65009 5.812227 0.8265629 -21.20957 11.18237 80.2497 23.1084 -5.292659 -0 0 23.1294 -21.4549 9.054331 13.8712 4.448753 -16.30198 -2.077273 -92.50812 23.30863 22.33997 0 0 -11.97886 -0.9049918 6.869071 14.51123
899.7535 96.61712 3053.743 2.821478 -4.225587 27.32574 3.046802 17.24124 3.673626 -0 16.94989 -0 -1.390498 -14.19422 -1.047521 0.8764996 -25.85952 -3.566144 -0 19.79018 -0 -5.061576 -7.414109 19.34569 -1.746676 0.5841143 7.474349 -0.06432598 9.114528 -3.565698 1.670135 22.38654 4.969776 2.502516 -17.88449 5.783793 1.092213 -21.21515 10.83891 79.33341 25.11103 -4.095679 -0 0 23.00911 -22.18434 8.717286 14.50782 4.455531 -16.07722 -1.802152 -92.83528 23.21579 23.29987 0 0 -10.13643 -0.4695798 7.750997 14.22029
903.7212 96.0507 3059.279 3.067105 -3.613186 26.87639 1.596507 18.35198 3.594204 -0 21.54355 -0 -1.554809 -11.0718 -0.7112355 -0.4690587 -25.1596 -4.698922 -0 18.97173 -0 -4.410136 -7.572515 19.24275 -2.545018 -0.05253436 7.730775 -0.3226437 9.147305 -3.526528 1.659621 22.21506 5.350755 3.018687 -17.8443 5.850446 1.664855 -20.86579 10.70723 79.07637 26.51648 -4.075168 -0 0 22.50156 -23.24451 8.967726 14.79608 4.41768 -16.00431 -1.747987 -92.84742 22.66745 23.89801 0 0 -8.849406 -0.2219745 8.008999 14.08843
907.9309 95.94711 3064.998 3.704257 -3.353685 26.76566 0.2261816 18.11745 3.984522 -0 28.8459 -0 -0.9130915 -6.269981 -1.01643 -2.238928 -23.06505 -5.822011 -0 19.8994 -0 -3.839151 -8.082165 18.88869 -3.43388 -0.6824278 7.898431 -0.4747815 9.589004 -3.6463 1.711021 21.92151 5.535322 3.273813 -17.93426 5.915768 2.172619 -20.56287 10.77593 79.71786 26.75279 -5.011452 -0 0 21.89174 -23.87602 9.240296 14.88896 4.139774 -15.94737 -1.904915 -92.72277 22.33537 24.4111 0 0 -8.301079 -0.4193173 7.595837 14.51059
912.2401 96.40081 3070.742 4.386866 -3.428759 27.09663 -0.6680647 16.11174 4.336285 -0 38.05732 -0 -0.1730375 -1.160112 -1.868816 -3.950831 -19.61919 -6.773426 -0 20.80326 -0 -3.167964 -8.921268 18.37113 -4.132632 -1.057122 7.680234 -0.5261225 10.15296 -3.957488 1.678783 21.69026 5.635701 3.291324 -18.12544 5.965459 2.659643 -20.26034 10.93457 80.92414 26.59083 -6.485506 -0 0 20.91312 -23.88253 9.488072 14.79173 3.730766 -15.97202 -2.241581 -92.3447 22.38402 24.48231 0 0 -8.410616 -0.7756327 6.972376 15.15547
916.4683 97.36656 3076.306 4.857055 -3.771106 27.85904 -0.930385 12.05854 4.398813 -0 47.25949 -0 0.1743052 3.08777 -3.059135 -5.214437 -15.05134 -7.408499 -0 20.9203 -0 -2.393415 -10.03041 17.80495 -4.446257 -1.031881 6.987747 -0.4913033 10.67214 -4.496038 1.496604 21.60976 5.808346 3.186728 -18.28469 6.039438 3.197607 -19.83895 11.11059 82.36105 26.77598 -8.293385 -0 0 19.38385 -23.47611 9.890247 14.50897 3.382223 -16.28182 -2.741112 -91.52572 22.69409 23.6967 0 0 -9.249595 -0.933092 6.554702 15.61684
920.4692 98.64695 3081.519 4.973423 -4.232981 28.92279 -0.6705824 6.103496 4.208268 -0 54.03094 -0 -0.00141104 5.722234 -4.339603 -5.849607 -9.814778 -7.692755 -0 20.08384 -0 -1.635711 -11.34745 17.22238 -4.332755 -0.6634295 5.939363 -0.3524579 11.10701 -5.281436 1.201045 21.6254 6.122648 3.047739 -18.3296 6.195974 3.771769 -19.26666 11.27636 83.83074 27.55816 -10.39975 -0 0 17.41762 -23.06031 10.68139 14.13916 3.254487 -17.03834 -3.356004 -90.18433 23.00358 21.88869 0 0 -10.91599 -0.7043419 6.549027 15.63943
924.1819 99.92528 3086.321 4.742561 -4.622907 30.09562 -0.1589368 -1.087207 3.89895 -0 56.25518 -0 -0.5048792 6.467768 -5.523602 -5.919444 -4.461572 -7.719832 -0 18.44771 -0 -1.070344 -12.82632 16.58629 -3.918767 -0.1532286 4.781494 -0.07418697 11.45825 -6.263147 0.8992569 21.61369 6.52212 2.914194 -18.24693 6.449756 4.265696 -18.59434 11.40964 85.24256 28.65569 -12.7617 -0 0 15.35358 -22.92722 11.89607 13.8169 3.438998 -18.2219 -3.992381 -88.44667 23.03614 19.21386 0 0 -13.34131 -0.1109061 6.897633 15.13555
927.6407 100.8528 3090.793 4.3085 -4.757555 31.20691 0.3115956 -8.472573 3.511134 -0 52.98469 -0 -0.9788536 5.579203 -6.513165 -5.678001 0.5394728 -7.623886 -0 16.32912 -0 -0.8186984 -14.42387 15.84526 -3.450465 0.2729533 3.779993 0.3618203 11.69219 -7.306391 0.6986543 21.49001 6.870422 2.796091 -18.0891 6.739117 4.505903 -17.89624 11.47444 86.55585 29.50395 -15.24113 -0 0 13.51753 -23.05622 13.23284 13.60745 3.937973 -19.61911 -4.540564 -86.61613 22.66046 16.08548 0 0 -16.26374 0.6810266 7.341804 14.18136
930.9457 101.1622 3095.125 3.872164 -4.523268 32.16308 0.5334839 -15.01717 2.964819 -0 44.94091 -0 -1.134921 3.790372 -7.259859 -5.440515 4.931911 -7.491101 -0 14.14531 -0 -0.8611418 -16.06584 14.99245 -3.167756 0.4727029 3.112092 0.9227951 11.74148 -8.235981 0.6407461 21.26109 7.053243 2.699389 -17.96092 6.961375 4.376209 -17.2213 11.44126 87.73829 29.67604 -17.64303 -0 0 12.00318 -23.17228 14.23773 13.4491 4.663496 -20.94304 -4.925705 -84.99489 21.969 12.98935 0 0 -19.37741 1.472727 7.599255 12.98438
934.2156 100.7559 3099.537 3.575103 -3.938736 32.94781 0.4814025 -20.0971 2.20986 -0 34.27406 -0 -0.9043984 2.038203 -7.742496 -5.415652 8.672328 -7.346881 -0 12.41447 -0 -1.072247 -17.62389 14.09922 -3.161042 0.4290538 2.807978 1.516331 11.57275 -8.911215 0.6895441 20.99269 7.056332 2.641997 -17.97002 7.046118 3.928179 -16.58596 11.31841 88.76615 29.17957 -19.81646 -0 0 10.67041 -23.00102 14.65485 13.1992 5.472635 -21.99471 -5.136574 -83.71771 21.19056 10.29231 0 0 -22.4793 2.13593 7.545788 11.79457
937.5505 99.73171 3104.206 3.419332 -3.16499 33.58676 0.3547581 -23.64916 1.382698 -0 23.65911 -0 -0.4309944 1.055265 -7.982727 -5.598743 11.81885 -7.200554 -0 11.72677 -0 -1.362219 -18.9154 13.28712 -3.315634 0.2136669 2.77423 2.02424 11.24646 -9.287794 0.7777067 20.7402 6.960027 2.649106 -18.16611 7.002711 3.378342 -16.00075 11.15466 89.63039 28.39875 -21.70985 -0 0 9.348622 -22.48934 14.6021 12.747 6.223349 -22.74174 -5.208311 -82.76199 20.53145 8.192024 0 0 -25.45151 2.646199 7.27624 10.81219
941.0124 98.34116 3109.235 3.279311 -2.435233 34.11186 0.4759736 -25.97478 0.7836543 -0 15.25808 -0 0.046301 1.082556 -8.04551 -5.806569 14.40604 -7.075279 -0 12.622 -0 -1.780007 -19.71905 12.64565 -3.39018 -0.08700075 2.869575 2.3626 10.90315 -9.429408 0.8593673 20.51196 6.868001 2.73101 -18.52495 6.907072 2.976373 -15.49249 11.00949 90.32823 27.76536 -23.33708 -0 0 8.023718 -21.8036 14.43092 12.08524 6.808979 -23.26688 -5.182605 -82.08 20.09759 6.786354 0 0 -28.12354 3.03542 7.013473 10.15461
944.6233 96.90475 3114.656 3.004431 -1.95288 34.53823 1.092247 -27.36664 0.6956432 -0 10.08854 -0 0.3302594 1.859997 -8.006971 -5.821663 16.38102 -6.988936 -0 15.44566 -0 -2.465039 -19.80082 12.17316 -3.169625 -0.4207866 2.977486 2.524207 10.69023 -9.458254 0.9261216 20.28896 6.835522 2.86353 -18.9783 6.843743 2.856862 -15.09612 10.92377 90.85926 27.46723 -24.70577 -0 0 6.841298 -21.16334 14.44669 11.30807 7.154364 -23.65224 -5.089643 -81.68484 19.90685 6.125636 0 0 -30.20347 3.323406 6.938931 9.864175
